# xmcd
# Track frame offsets:
# 150
# 13407
# 28692
# 42005
# 62025
# 81990
# 97285
# 116682
# 132585
# 149165
# 173292
#
# Disc length: 2456 seconds
# Revision: 0
# Processed by: cddbd v1.4PL0 Copyright (c) Steve Scherf et al.
# Submitted via: VisiTrax 2.9.5.180 - For more info visit www.synapsa.com
#
DISCID=a009960b
DTITLE=John McIntosh - Tanglewood Briar
DYEAR=1999
DGENRE=
TTITLE0=City state of mind
TTITLE1=Yesterday's song
TTITLE2=Accidently right
TTITLE3=Who I am
TTITLE4=Hitch a ride on a train
TTITLE5=North of the border
TTITLE6=Do I ever cross you mind
TTITLE7=Nineteen seventy
TTITLE8=Instead of judging me
TTITLE9=Eyes of a child
TTITLE10=The forest for the trees
EXTD=
EXTT0=
EXTT1=
EXTT2=
EXTT3=
EXTT4=
EXTT5=
EXTT6=
EXTT7=
EXTT8=
EXTT9=
EXTT10=
PLAYORDER=
